<svg width="71" height="66" viewBox="0 0 71 66" fill="none" xmlns="http://www.w3.org/2000/svg">
<path d="M22.94 32.8503L1.60911 3.46113C1.24046 2.95322 1.21438 2.27317 1.54303 1.73851C1.82512 1.2796 2.32519 1 2.86386 1H25.0276C25.0695 1 25.1091 1.01913 25.1351 1.05194L35.5854 14.2165C35.7087 14.3718 35.9365 14.3929 36.0863 14.263L47.0078 4.78618C47.4223 4.42658 48.0399 4.43294 48.4468 4.801C48.8656 5.17976 48.9239 5.81638 48.5809 6.26489L36.189 22.4681C36.0005 22.7146 35.628 22.7107 35.4447 22.4602L23.6161 6.2904C23.2395 5.77554 22.6398 5.47123 22.0019 5.47123H11.9284C10.2594 5.47123 9.32463 7.39488 10.3559 8.70709L28.5199 31.8183C29.0536 32.4973 29.0911 33.4422 28.6129 34.1614L14.9698 54.6826C14.5991 55.2402 13.9739 55.5753 13.3043 55.5753H10.4329C9.88059 55.5753 9.43287 55.1276 9.43287 54.5753V53.5605C9.43287 53.1596 9.55335 52.7679 9.77869 52.4363L22.9434 33.0643C22.9875 32.9994 22.9861 32.9138 22.94 32.8503Z" fill="#D70006"/>
<path d="M55.0452 3.36712L67.7152 1V13.8L65.3295 11.7911C64.4114 11.018 63.024 11.222 62.3673 12.2265L49.1105 32.5026C48.9322 32.7753 48.9423 33.1301 49.1357 33.3922L69.0229 60.3443C69.6295 61.1664 69.7625 62.2456 69.3738 63.1904C68.9232 64.2853 67.8563 65 66.6723 65H46.1972C46.1709 65 46.146 64.9876 46.1302 64.9665L37.1659 52.9998C36.4461 52.0388 35.0477 51.9242 34.181 52.7552L26.9733 59.6665C26.8026 59.8302 26.5977 59.954 26.3734 60.0292C24.8815 60.529 23.6384 58.8031 24.5851 57.5464L34.45 44.4513C35.1268 43.5528 36.4797 43.5651 37.1401 44.4757L48.2151 59.7468C48.5913 60.2655 49.1933 60.5726 49.8341 60.5726H59.5428C61.2018 60.5726 62.1395 58.6691 61.1285 57.3538L44.1179 35.2235C43.0755 33.8674 43.0108 31.9986 43.9567 30.5736L58.5691 8.56178C59.1387 7.70383 58.9636 6.55366 58.1647 5.90395L55.0452 3.36712Z" fill="#D70006"/>
<path d="M22.94 32.8503L1.60911 3.46113C1.24046 2.95322 1.21438 2.27317 1.54303 1.73851C1.82512 1.2796 2.32519 1 2.86386 1H25.0276C25.0695 1 25.1091 1.01913 25.1351 1.05194L35.5854 14.2165C35.7087 14.3718 35.9365 14.3929 36.0863 14.263L47.0078 4.78618C47.4223 4.42658 48.0399 4.43294 48.4468 4.801C48.8656 5.17976 48.9239 5.81638 48.5809 6.26489L36.189 22.4681C36.0005 22.7146 35.628 22.7107 35.4447 22.4602L23.6161 6.2904C23.2395 5.77554 22.6398 5.47123 22.0019 5.47123H11.9284C10.2594 5.47123 9.32463 7.39488 10.3559 8.70709L28.5199 31.8183C29.0536 32.4973 29.0911 33.4422 28.6129 34.1614L14.9698 54.6826C14.5991 55.2402 13.9739 55.5753 13.3043 55.5753H10.4329C9.88059 55.5753 9.43287 55.1276 9.43287 54.5753V53.5605C9.43287 53.1596 9.55335 52.7679 9.77869 52.4363L22.9434 33.0643C22.9875 32.9994 22.9861 32.9138 22.94 32.8503Z" stroke="#D70006"/>
<path d="M55.0452 3.36712L67.7152 1V13.8L65.3295 11.7911C64.4114 11.018 63.024 11.222 62.3673 12.2265L49.1105 32.5026C48.9322 32.7753 48.9423 33.1301 49.1357 33.3922L69.0229 60.3443C69.6295 61.1664 69.7625 62.2456 69.3738 63.1904C68.9232 64.2853 67.8563 65 66.6723 65H46.1972C46.1709 65 46.146 64.9876 46.1302 64.9665L37.1659 52.9998C36.4461 52.0388 35.0477 51.9242 34.181 52.7552L26.9733 59.6665C26.8026 59.8302 26.5977 59.954 26.3734 60.0292C24.8815 60.529 23.6384 58.8031 24.5851 57.5464L34.45 44.4513C35.1268 43.5528 36.4797 43.5651 37.1401 44.4757L48.2151 59.7468C48.5913 60.2655 49.1933 60.5726 49.8341 60.5726H59.5428C61.2018 60.5726 62.1395 58.6691 61.1285 57.3538L44.1179 35.2235C43.0755 33.8674 43.0108 31.9986 43.9567 30.5736L58.5691 8.56178C59.1387 7.70383 58.9636 6.55366 58.1647 5.90395L55.0452 3.36712Z" stroke="#D70006"/>
</svg>